<?xml version="1.0" encoding="UTF-8"?>
<svg id="Layer_1" xmlns="http://www.w3.org/2000/svg" version="1.1" viewBox="0 0 460 460">
  <!-- Generator: Adobe Illustrator 29.8.2, SVG Export Plug-In . SVG Version: 2.1.1 Build 3)  -->
  <defs>
    <style>
      .st0 {
        fill: #e82356;
      }
    </style>
  </defs>
  <path class="st0" d="M136.959,143.7285c-11.598,0-21,9.402-21,21v88.3751c0,11.598,9.402,21,21,21s21-9.402,21-21v-88.3751c0-11.598-9.402-21-21-21Z"/>
  <path class="st0" d="M198.9957,164.0475c-11.598,0-21,9.402-21,21v118.5258c0,11.598,9.402,21,21,21s21-9.402,21-21v-118.5258c0-11.598-9.402-21-21-21Z"/>
  <path class="st0" d="M261.0324,105.9289c-11.598,0-21,9.402-21,21v206.2176c0,11.598,9.402,21,21,21s21-9.402,21-21V126.9289c0-11.598-9.402-21-21-21Z"/>
  <path class="st0" d="M323.0691,143.7285c-11.598,0-21,9.402-21,21v88.3751c0,11.598,9.402,21,21,21s21-9.402,21-21v-88.3751c0-11.598-9.402-21-21-21Z"/>
</svg>